Coordinates
version=1
nRows=19
nColumns=24
inDegrees=yes

Units are S.I. units (second, meters, Newtons, ...)
Angles are in degrees.

endheader
time	pelvis_tilt	pelvis_list	pelvis_rotation	pelvis_tx	pelvis_ty	pelvis_tz	hip_flexion_r	hip_adduction_r	hip_rotation_r	knee_angle_r	ankle_angle_r	subtalar_angle_r	mtp_angle_r	hip_flexion_l	hip_adduction_l	hip_rotation_l	knee_angle_l	ankle_angle_l	subtalar_angle_l	mtp_angle_l	lumbar_extension	lumbar_bending	lumbar_rotation
      4.28000000	      0.55899475	     -5.99580173	     -2.75268578	     -2.94639520	      0.91486482	      0.26494182	    -13.71511167	     11.70724591	      0.70450005	     -7.66677618	     17.77721999	      2.82252399	      0.00000000	     18.70636905	     -3.30082902	    -10.28698420	     -0.50009824	      5.47197082	      0.91502279	      0.00000000	    -18.92416165	      5.94104773	      6.37264119
      4.29000000	      0.78382033	     -5.93169651	     -2.82263890	     -2.93469145	      0.91449510	      0.26429294	    -14.16074676	     11.44962292	      0.62705386	     -8.72970926	     17.52047568	      3.14931757	      0.00000000	     18.31578681	     -3.11191830	     -9.01405544	     -1.39162770	      4.75491633	      0.09142209	      0.00000000	    -18.83931232	      5.84783478	      6.44946444
      4.30000000	      1.01482249	     -5.82664214	     -2.89995103	     -2.92285147	      0.91432953	      0.26355657	    -14.48523152	     11.11996043	      0.45081746	    -10.01396957	     17.09928378	      3.55676921	      0.00000000	     17.84011373	     -2.86275360	     -7.33632681	     -2.21411884	      3.67873265	     -0.93246675	      0.00000000	    -18.74321338	      5.71575301	      6.52445634
      4.31000000	      1.30206299	     -5.64909921	     -2.97573840	     -2.91090014	      0.91449736	      0.26272407	    -14.72784240	     10.68392593	      0.17007194	    -11.53150511	     16.51429420	      4.02569235	      0.00000000	     17.25157817	     -2.52004387	     -5.45232494	     -2.97108232	      2.32633035	     -2.04185849	      0.00000000	    -18.70526043	      5.50673471	      6.57110554
      4.32000000	      1.61945763	     -5.40716860	     -3.02968922	     -2.89890843	      0.91499326	      0.26181689	    -14.82549582	     10.15790566	     -0.27536404	    -13.32789365	     15.71117979	      4.54268272	      0.00000000	     16.63570436	     -2.09863260	     -3.56378364	     -3.73774650	      0.83764158	     -3.17334687	      0.00000000	    -18.69917168	      5.22202313	      6.57435749
      4.33000000	      1.95851315	     -5.08644505	     -3.09266280	     -2.88689867	      0.91581874	      0.26085995	    -14.74549069	      9.50969898	     -0.90312176	    -15.43523266	     14.62139255	      5.10396175	      0.00000000	     16.00651204	     -1.59104233	     -1.78014814	     -4.53685593	     -0.63022068	     -4.44795549	      0.00000000	    -18.71713001	      4.86332075	      6.58615896
      4.34000000	      2.37480854	     -4.70246242	     -3.08913714	     -2.87493905	      0.91699416	      0.25983282	    -14.54879047	      8.77147202	     -1.74740892	    -17.82322848	     13.19094375	      5.63107339	      0.00000000	     15.37377582	     -1.00780955	     -0.35761523	     -5.49170328	     -1.72102075	     -5.46415476	      0.00000000	    -18.83831270	      4.42904228	      6.48130169
      4.35000000	      2.78098788	     -4.28772939	     -3.08599431	     -2.86310987	      0.91836927	      0.25883222	    -14.13291780	      7.96920963	     -2.65879551	    -20.49557936	     11.30236960	      5.99201598	      0.00000000	     14.80952335	     -0.40619147	      0.61389866	     -6.57676507	     -2.45020416	     -6.30776235	      0.00000000	    -18.96833412	      3.95916040	      6.37375396
      4.36000000	      3.19426359	     -3.84910088	     -3.09067820	     -2.85146605	      0.91989814	      0.25790523	    -13.52527646	      7.11017980	     -3.57301460	    -23.40636631	      8.86517152	      6.06870122	      0.00000000	     14.29990223	      0.18465882	      0.89917290	     -7.80223950	     -2.50612776	     -6.49955778	      0.00000000	    -19.14197135	      3.45312046	      6.23425167
      4.37000000	      3.60003058	     -3.40029758	     -3.11807816	     -2.84004197	      0.92145473	      0.25699341	    -12.70949209	      6.17644219	     -4.53884995	    -26.53893545	      5.99962705	      6.08302789	      0.00000000	     13.75854532	      0.77644591	      1.04277226	     -8.98632094	     -2.23388350	     -6.81234055	      0.00000000	    -19.34776228	      2.94325843	      6.09396941
      4.38000000	      3.94177955	     -2.97572333	     -3.22699780	     -2.82890421	      0.92292969	      0.25623043	    -11.65065389	      5.25240114	     -5.23715526	    -29.81606573	      2.55689828	      5.57415478	      0.00000000	     13.21201446	      1.30207323	      0.87648746	    -10.04350700	     -1.60738375	     -6.91220776	      0.00000000	    -19.52812073	      2.45567258	      6.00114392
      4.39000000	      4.25134707	     -2.55692496	     -3.45299662	     -2.81809621	      0.92432923	      0.25565909	    -10.38297907	      4.30698362	     -5.68715891	    -33.21275372	     -1.22422803	      4.85427381	      0.00000000	     12.63505939	      1.76102394	      0.20456425	    -10.96479589	     -0.67927699	     -6.45574507	      0.00000000	    -19.73494596	      1.95597612	      5.97360280
      4.40000000	      4.48302327	     -2.15207877	     -3.78597330	     -2.80759849	      0.92553755	      0.25524281	     -8.88369591	      3.39287004	     -5.82181221	    -36.66440131	     -5.14465795	      3.88921287	      0.00000000	     12.01000372	      2.18943778	     -0.47750611	    -11.62421052	      0.29460710	     -6.00939525	      0.00000000	    -19.90618187	      1.46616139	      5.99179510
      4.41000000	      4.65202484	     -1.75649305	     -4.23401830	     -2.79743857	      0.92652527	      0.25497506	     -7.17202091	      2.51541727	     -5.68694623	    -40.15607824	     -8.87042513	      2.72490349	      0.00000000	     11.35366390	      2.60332060	     -1.21435700	    -12.06099381	      1.21545462	     -5.72916694	      0.00000000	    -20.06424539	      0.98450088	      6.08449975
      4.42000000	      4.77987420	     -1.34885024	     -4.76333098	     -2.78755603	      0.92733749	      0.25486909	     -5.30895567	      1.69470840	     -5.29620073	    -43.62065498	    -12.12270481	      1.51918659	      0.00000000	     10.67175341	      3.01901145	     -2.11611117	    -12.32026478	      2.17631494	     -5.13665806	      0.00000000	    -20.21857440	      0.47662141	      6.12222044
      4.43000000	      4.84376563	     -0.98081125	     -5.35843165	     -2.77791515	      0.92794442	      0.25484540	     -3.30649969	      1.00850181	     -4.69332012	    -46.99591326	    -14.67367054	      0.19560222	      0.00000000	      9.96475554	      3.43883199	     -2.72245260	    -12.36736816	      2.89682140	     -5.16007416	      0.00000000	    -20.33120415	      0.03053212	      6.22036482
      4.44000000	      4.88732854	     -0.62056182	     -5.92569938	     -2.76844392	      0.92844676	      0.25484077	     -1.26177844	      0.43116921	     -4.03491590	    -50.20480689	    -16.37527149	     -1.28761421	      0.00000000	      9.25852649	      3.87326829	     -3.29433577	    -12.33464095	      3.66375527	     -5.00455456	      0.00000000	    -20.44306406	     -0.38889029	      6.20319348
      4.45000000	      4.88904366	     -0.31287873	     -6.45243570	     -2.75909644	      0.92887739	      0.25480429	      0.81024280	      0.00342524	     -3.37548265	    -53.18411824	    -17.20315245	     -2.89337779	      0.00000000	      8.56121145	      4.29533356	     -3.61129599	    -12.20703616	      4.25835159	     -5.21260036	      0.00000000	    -20.51819037	     -0.71284826	      6.13724253
      4.46000000	      4.88242546	     -0.05112227	     -6.88321595	     -2.74980636	      0.92934258	      0.25469429	      2.82771614	     -0.29889449	     -2.80724457	    -55.86079732	    -17.16667917	     -4.65182553	      0.00000000	      7.86078561	      4.69550420	     -3.80001027	    -12.03753440	      4.78301805	     -5.45539389	      0.00000000	    -20.58610540	     -0.95048075	      5.93248246
